HIERARCHY
ROOT newVegas:Hips
{
	OFFSET 0.000000 96.479958 0.000000
	CHANNELS 6 Xposition Yposition Zposition Xrotation Yrotation Zrotation
	JOINT newVegas:Pelvis
	{
		OFFSET 0.000000 0.000000 0.000000
		CHANNELS 3 Xrotation Yrotation Zrotation
		JOINT newVegas:LeftUpLeg
		{
			OFFSET 18.735201 -5.666702 -4.541200
			CHANNELS 3 Xrotation Yrotation Zrotation
			JOINT newVegas:LeftLeg
			{
				OFFSET -0.021200 -31.938179 0.493100
				CHANNELS 3 Xrotation Yrotation Zrotation
				JOINT newVegas:LeftFoot
				{
					OFFSET 0.021200 -31.938179 -4.336299
					CHANNELS 3 Xrotation Yrotation Zrotation
					JOINT newVegas:LeftToeBase
					{
						OFFSET 0.943001 -26.722000 15.023500
						CHANNELS 3 Xrotation Yrotation Zrotation
						End Site
						{
							OFFSET 0.000000 30.670183 0.000000
						}
					}
				}
				JOINT newVegas:Left_PantLeg
				{
					OFFSET 0.663870 -9.044666 -1.108900
					CHANNELS 3 Xrotation Yrotation Zrotation
					End Site
					{
						OFFSET 1.415995 20.635357 0.000000
					}
				}
			}
		}
		JOINT newVegas:RightUpLeg
		{
			OFFSET -18.735201 -5.666702 -4.541200
			CHANNELS 3 Xrotation Yrotation Zrotation
			JOINT newVegas:RightLeg
			{
				OFFSET 0.018946 -31.938133 0.493100
				CHANNELS 3 Xrotation Yrotation Zrotation
				JOINT newVegas:RightFoot
				{
					OFFSET -0.018946 -31.938126 -4.336299
					CHANNELS 3 Xrotation Yrotation Zrotation
					JOINT newVegas:RightToeBase
					{
						OFFSET -0.943001 -26.722004 15.023500
						CHANNELS 3 Xrotation Yrotation Zrotation
						End Site
						{
							OFFSET 0.000000 30.670187 0.000000
						}
					}
				}
				JOINT newVegas:Right_PantLeg
				{
					OFFSET -0.661674 -9.044716 -1.108900
					CHANNELS 3 Xrotation Yrotation Zrotation
					End Site
					{
						OFFSET -1.415958 20.635269 0.000000
					}
				}
			}
		}
	}
	JOINT newVegas:Spine
	{
		OFFSET 0.000000 10.199997 -0.299500
		CHANNELS 3 Xrotation Yrotation Zrotation
		JOINT newVegas:Spine1
		{
			OFFSET 0.000000 11.900002 -1.516600
			CHANNELS 3 Xrotation Yrotation Zrotation
			JOINT newVegas:Spine2
			{
				OFFSET 0.000000 13.600006 -2.842500
				CHANNELS 3 Xrotation Yrotation Zrotation
				JOINT newVegas:Neck
				{
					OFFSET 0.000000 9.624100 -2.890100
					CHANNELS 3 Xrotation Yrotation Zrotation
					JOINT newVegas:Head
					{
						OFFSET 0.000000 14.068802 -1.351900
						CHANNELS 3 Xrotation Yrotation Zrotation
						JOINT newVegas:Hair_Back
						{
							OFFSET 0.000000 3.231903 -17.524799
							CHANNELS 3 Xrotation Yrotation Zrotation
							End Site
							{
								OFFSET 0.000000 19.849884 0.000000
							}
						}
						JOINT newVegas:Hair_Front
						{
							OFFSET 0.000000 31.260406 4.573800
							CHANNELS 3 Xrotation Yrotation Zrotation
							JOINT newVegas:Hair_Front1
							{
								OFFSET 0.000000 2.284103 11.993300
								CHANNELS 3 Xrotation Yrotation Zrotation
								JOINT newVegas:Hair_Front2
								{
									OFFSET 0.000000 2.284103 11.993300
									CHANNELS 3 Xrotation Yrotation Zrotation
									End Site
									{
										OFFSET 0.000000 12.208862 0.000000
									}
								}
							}
						}
						JOINT newVegas:Jowel
						{
							OFFSET 0.000000 -7.458206 6.864100
							CHANNELS 3 Xrotation Yrotation Zrotation
							End Site
							{
								OFFSET 0.000000 19.849884 0.000000
							}
						}
					}
				}
				JOINT newVegas:LeftShoulder
				{
					OFFSET 15.263000 10.923401 -0.547700
					CHANNELS 3 Xrotation Yrotation Zrotation
					JOINT newVegas:LeftArm
					{
						OFFSET 25.438599 -2.830597 -13.032500
						CHANNELS 3 Xrotation Yrotation Zrotation
						JOINT newVegas:LeftForeArm
						{
							OFFSET 29.960503 0.000000 0.000000
							CHANNELS 3 Xrotation Yrotation Zrotation
							JOINT newVegas:LeftHand
							{
								OFFSET 27.849251 0.000000 0.000000
								CHANNELS 3 Xrotation Yrotation Zrotation
								JOINT newVegas:LeftHandThumb1
								{
									OFFSET 4.487587 -3.305161 6.305391
									CHANNELS 3 Xrotation Yrotation Zrotation
									JOINT newVegas:LeftHandThumb2
									{
										OFFSET 5.480453 -3.164139 3.164143
										CHANNELS 3 Xrotation Yrotation Zrotation
										JOINT newVegas:LeftHandThumb3
										{
											OFFSET 5.159721 -2.978973 2.978967
											CHANNELS 3 Xrotation Yrotation Zrotation
											End Site
											{
												OFFSET 2.494507 5.926697 1.738678
											}
										}
									}
								}
								JOINT newVegas:LeftHandIndex1
								{
									OFFSET 18.578728 -0.527832 5.208049
									CHANNELS 3 Xrotation Yrotation Zrotation
									JOINT newVegas:LeftHandIndex2
									{
										OFFSET 3.192009 0.000000 0.000000
										CHANNELS 3 Xrotation Yrotation Zrotation
										JOINT newVegas:LeftHandIndex3
										{
											OFFSET 3.835129 0.000000 0.000000
											CHANNELS 3 Xrotation Yrotation Zrotation
											End Site
											{
												OFFSET -0.034599 3.816971 0.371180
											}
										}
									}
								}
								JOINT newVegas:LeftHandMiddle1
								{
									OFFSET 18.476105 0.000000 0.000000
									CHANNELS 3 Xrotation Yrotation Zrotation
									JOINT newVegas:LeftHandMiddle2
									{
										OFFSET 3.324875 0.000000 0.000000
										CHANNELS 3 Xrotation Yrotation Zrotation
										JOINT newVegas:LeftHandMiddle3
										{
											OFFSET 4.596550 0.000000 0.000000
											CHANNELS 3 Xrotation Yrotation Zrotation
											End Site
											{
												OFFSET 0.057701 4.578827 0.399218
											}
										}
									}
								}
								JOINT newVegas:LeftHandRing1
								{
									OFFSET 17.732719 0.121887 -4.201567
									CHANNELS 3 Xrotation Yrotation Zrotation
									JOINT newVegas:LeftHandRing2
									{
										OFFSET 2.733170 0.000000 0.000000
										CHANNELS 3 Xrotation Yrotation Zrotation
										JOINT newVegas:LeftHandRing3
										{
											OFFSET 3.178268 0.000000 0.000000
											CHANNELS 3 Xrotation Yrotation Zrotation
											End Site
											{
												OFFSET 0.119102 3.170624 0.185394
											}
										}
									}
								}
								JOINT newVegas:LeftHandPinky1
								{
									OFFSET 15.989624 -0.606689 -7.535461
									CHANNELS 3 Xrotation Yrotation Zrotation
									JOINT newVegas:LeftHandPinky2
									{
										OFFSET 2.538986 0.000000 0.000000
										CHANNELS 3 Xrotation Yrotation Zrotation
										JOINT newVegas:LeftHandPinky3
										{
											OFFSET 2.593102 0.000000 0.000000
											CHANNELS 3 Xrotation Yrotation Zrotation
											End Site
											{
												OFFSET -0.150902 2.584198 0.152708
											}
										}
									}
								}
							}
							JOINT newVegas:Left_Sleeve
							{
								OFFSET 0.267448 -0.649796 0.577675
								CHANNELS 3 Xrotation Yrotation Zrotation
								End Site
								{
									OFFSET 0.000000 15.991241 0.000000
								}
							}
							JOINT newVegas:Left_CapeC
							{
								OFFSET 15.715958 -8.608795 -6.935905
								CHANNELS 3 Xrotation Yrotation Zrotation
								JOINT newVegas:Left_CapeC1
								{
									OFFSET 0.000000 -8.688499 0.000000
									CHANNELS 3 Xrotation Yrotation Zrotation
									End Site
									{
										OFFSET 0.000000 8.688499 0.000000
									}
								}
							}
						}
						JOINT newVegas:Left_CapeB
						{
							OFFSET 26.118385 -8.608795 -7.079235
							CHANNELS 3 Xrotation Yrotation Zrotation
							JOINT newVegas:Left_CapeB1
							{
								OFFSET 0.000000 -8.688499 0.000000
								CHANNELS 3 Xrotation Yrotation Zrotation
								End Site
								{
									OFFSET 0.000000 8.688499 0.000000
								}
							}
						}
						JOINT newVegas:Left_CapeA
						{
							OFFSET 5.115639 -8.608795 -10.395809
							CHANNELS 3 Xrotation Yrotation Zrotation
							JOINT newVegas:Left_CapeA1
							{
								OFFSET 0.000000 -8.688499 0.000000
								CHANNELS 3 Xrotation Yrotation Zrotation
								End Site
								{
									OFFSET 0.000000 8.688499 0.000000
								}
							}
						}
					}
				}
				JOINT newVegas:RightShoulder
				{
					OFFSET -15.263000 10.923401 -0.547700
					CHANNELS 3 Xrotation Yrotation Zrotation
					JOINT newVegas:RightArm
					{
						OFFSET -25.438599 -2.830597 -13.032500
						CHANNELS 3 Xrotation Yrotation Zrotation
						JOINT newVegas:RightForeArm
						{
							OFFSET -29.960503 0.000000 0.000000
							CHANNELS 3 Xrotation Yrotation Zrotation
							JOINT newVegas:RightHand
							{
								OFFSET -27.849251 0.000000 0.000000
								CHANNELS 3 Xrotation Yrotation Zrotation
								JOINT newVegas:RightHandThumb1
								{
									OFFSET -4.487587 -3.305161 6.305391
									CHANNELS 3 Xrotation Yrotation Zrotation
									JOINT newVegas:RightHandThumb2
									{
										OFFSET -5.480453 -3.164139 3.164143
										CHANNELS 3 Xrotation Yrotation Zrotation
										JOINT newVegas:RightHandThumb3
										{
											OFFSET -5.159721 -2.978973 2.978967
											CHANNELS 3 Xrotation Yrotation Zrotation
											End Site
											{
												OFFSET -2.494507 5.926697 1.738678
											}
										}
									}
								}
								JOINT newVegas:RightHandIndex1
								{
									OFFSET -18.578728 -0.527832 5.208049
									CHANNELS 3 Xrotation Yrotation Zrotation
									JOINT newVegas:RightHandIndex2
									{
										OFFSET -3.192009 0.000000 0.000000
										CHANNELS 3 Xrotation Yrotation Zrotation
										JOINT newVegas:RightHandIndex3
										{
											OFFSET -3.835129 0.000000 0.000000
											CHANNELS 3 Xrotation Yrotation Zrotation
											End Site
											{
												OFFSET 0.034599 3.816971 0.371180
											}
										}
									}
								}
								JOINT newVegas:RightHandMiddle1
								{
									OFFSET -18.476105 0.000000 0.000000
									CHANNELS 3 Xrotation Yrotation Zrotation
									JOINT newVegas:RightHandMiddle2
									{
										OFFSET -3.324875 0.000000 0.000000
										CHANNELS 3 Xrotation Yrotation Zrotation
										JOINT newVegas:RightHandMiddle3
										{
											OFFSET -4.596550 0.000000 0.000000
											CHANNELS 3 Xrotation Yrotation Zrotation
											End Site
											{
												OFFSET -0.057701 4.578827 0.399218
											}
										}
									}
								}
								JOINT newVegas:RightHandRing1
								{
									OFFSET -17.732719 0.121887 -4.201567
									CHANNELS 3 Xrotation Yrotation Zrotation
									JOINT newVegas:RightHandRing2
									{
										OFFSET -2.733170 0.000000 0.000000
										CHANNELS 3 Xrotation Yrotation Zrotation
										JOINT newVegas:RightHandRing3
										{
											OFFSET -3.178268 0.000000 0.000000
											CHANNELS 3 Xrotation Yrotation Zrotation
											End Site
											{
												OFFSET -0.119102 3.170624 0.185394
											}
										}
									}
								}
								JOINT newVegas:RightHandPinky1
								{
									OFFSET -15.989624 -0.606689 -7.535461
									CHANNELS 3 Xrotation Yrotation Zrotation
									JOINT newVegas:RightHandPinky2
									{
										OFFSET -2.538986 0.000000 0.000000
										CHANNELS 3 Xrotation Yrotation Zrotation
										JOINT newVegas:RightHandPinky3
										{
											OFFSET -2.593102 0.000000 0.000000
											CHANNELS 3 Xrotation Yrotation Zrotation
											End Site
											{
												OFFSET 0.150902 2.584198 0.152708
											}
										}
									}
								}
							}
							JOINT newVegas:Right_CapeC
							{
								OFFSET -15.715958 -8.608795 -6.935905
								CHANNELS 3 Xrotation Yrotation Zrotation
								JOINT newVegas:Right_CapeC1
								{
									OFFSET 0.000000 -8.688499 0.000000
									CHANNELS 3 Xrotation Yrotation Zrotation
									End Site
									{
										OFFSET 0.000000 8.688499 0.000000
									}
								}
							}
							JOINT newVegas:Right_Sleeve
							{
								OFFSET -0.267448 -0.649994 0.577675
								CHANNELS 3 Xrotation Yrotation Zrotation
								End Site
								{
									OFFSET 0.000000 15.991302 0.000000
								}
							}
						}
						JOINT newVegas:Right_CapeA
						{
							OFFSET -5.115540 -8.608795 -10.395824
							CHANNELS 3 Xrotation Yrotation Zrotation
							JOINT newVegas:Right_CapeA1
							{
								OFFSET 0.000000 -8.688499 0.000000
								CHANNELS 3 Xrotation Yrotation Zrotation
								End Site
								{
									OFFSET 0.000000 8.688499 0.000000
								}
							}
						}
						JOINT newVegas:Right_CapeB
						{
							OFFSET -26.118187 -8.608795 -7.079266
							CHANNELS 3 Xrotation Yrotation Zrotation
							JOINT newVegas:Right_CapeB1
							{
								OFFSET 0.000000 -8.688499 0.000000
								CHANNELS 3 Xrotation Yrotation Zrotation
								End Site
								{
									OFFSET 0.000000 8.688499 0.000000
								}
							}
						}
					}
				}
				JOINT newVegas:Left_Collar
				{
					OFFSET 18.625099 8.655502 8.828100
					CHANNELS 3 Xrotation Yrotation Zrotation
					JOINT newVegas:Left_Collar1
					{
						OFFSET 14.783401 10.540405 -1.259500
						CHANNELS 3 Xrotation Yrotation Zrotation
						End Site
						{
							OFFSET 0.000000 18.199875 0.000000
						}
					}
				}
				JOINT newVegas:Collar_Back
				{
					OFFSET 0.000000 15.630707 -20.132601
					CHANNELS 3 Xrotation Yrotation Zrotation
					End Site
					{
						OFFSET 0.000000 22.523010 0.000000
					}
				}
				JOINT newVegas:Left_Peck
				{
					OFFSET 17.239599 -5.132599 25.482599
					CHANNELS 3 Xrotation Yrotation Zrotation
					End Site
					{
						OFFSET 0.000000 22.523010 0.000000
					}
				}
				JOINT newVegas:Right_Peck
				{
					OFFSET -17.239599 -5.132202 25.482599
					CHANNELS 3 Xrotation Yrotation Zrotation
					End Site
					{
						OFFSET 0.000000 22.523010 0.000000
					}
				}
				JOINT newVegas:Right_Collar
				{
					OFFSET -18.625099 8.655792 8.828100
					CHANNELS 3 Xrotation Yrotation Zrotation
					JOINT newVegas:Right_Collar1
					{
						OFFSET -14.783401 10.539993 -1.259500
						CHANNELS 3 Xrotation Yrotation Zrotation
						End Site
						{
							OFFSET 0.000000 18.199631 0.000000
						}
					}
				}
			}
		}
		JOINT newVegas:Belly
		{
			OFFSET 0.000000 -6.540398 9.014299
			CHANNELS 3 Xrotation Yrotation Zrotation
			End Site
			{
				OFFSET 0.000000 11.566666 0.000000
			}
		}
	}
	JOINT newVegas:ElvisFacialAnim_Joint
	{
		OFFSET 1.000000 -95.330101 -8.825800
		CHANNELS 3 Xrotation Yrotation Zrotation
		End Site
		{
			OFFSET 0.000000 35.315800 0.000000
		}
	}
}
MOTION
Frames: 4
Frame Time: 0.016667
-0.113866 109.462936 2.749374 -90.807365 -2.094816 1.697373 0.000000 0.000000 -0.000000 -10.377925 17.337911 19.703492 12.481922 1.205835 1.433476 21.968704 29.941920 -28.484792 -0.000000 0.000001 0.000000 -0.000000 -0.000001 -0.000000 -13.903266 -16.049864 -21.592936 14.288496 -5.354657 -4.610885 32.403490 -29.920637 33.605067 0.000001 -0.000000 -0.000000 0.000001 -0.000001 0.000002 0.698689 -0.116037 -0.848578 0.841701 0.154199 -0.463161 0.831244 0.158014 -0.488484 -1.630410 1.534527 -3.394681 -1.630430 1.534528 -3.394681 0.000000 0.000000 0.000000 -1.630391 1.534532 -3.394684 -1.630386 1.534536 -3.394685 0.000000 -0.000000 -0.000000 0.000000 0.000000 0.000000 0.834126 -6.730774 -3.480306 44.076577 -39.845845 -34.620911 0.000093 -83.340479 0.000103 -23.114876 -8.492732 7.463174 -1.945761 1.585340 13.204804 8.601840 21.114951 -0.258291 0.000002 -0.000005 -0.000003 0.776300 5.158041 -28.512490 0.566019 2.514174 -25.370939 -0.000001 -0.000001 0.000001 0.776310 5.158026 -28.512486 0.566014 2.514174 -25.370927 0.000001 -0.000003 -0.000000 0.776307 5.158024 -28.512486 0.351474 2.000419 -19.928006 -0.000000 -0.000001 0.000000 0.776304 5.158042 -28.512500 0.064898 0.870536 -8.527014 -0.000000 0.000002 -0.000001 -0.000000 0.000003 -0.000003 -0.000000 0.000003 -0.000003 -0.000001 0.000003 -0.000003 -0.000001 0.000003 0.000002 -0.000001 0.000002 0.000001 -0.000001 0.000003 0.000002 -0.000001 0.000003 0.000002 0.483607 4.500679 3.202686 -4.326317 2.268515 83.611515 0.000036 129.571967 -0.000052 -0.045395 -5.712091 64.766791 -1.120914 -3.665712 -6.555858 8.244821 -30.620790 -3.274799 0.000000 -0.000003 0.000003 4.540604 -8.344329 48.387389 6.575539 -4.244510 114.349087 -0.000002 -0.000001 -0.000002 2.375473 -6.542187 44.640211 7.222600 -3.888165 123.454809 -0.000002 0.000001 0.000002 2.745575 -6.923845 44.442289 7.225005 -3.886569 123.490312 0.000004 -0.000003 0.000001 -10.268036 -14.528504 47.436289 6.314130 -4.353026 110.862925 -0.000001 0.000003 -0.000000 0.000000 0.000002 0.000000 0.000000 -0.000000 0.000000 0.000000 0.000001 -0.000000 -0.000000 0.000002 0.000000 -0.000000 0.000002 0.000000 -0.000000 0.000002 0.000000 -0.000000 0.000002 0.000000 0.000000 0.000000 -0.000000 0.000000 0.000000 -0.000000 0.000000 0.000000 -0.000000 0.000000 0.000000 -0.000000 0.000000 0.000000 -0.000000 0.000000 0.000000 -0.000000 0.000000 0.000000 -0.000000 -0.000000 0.000000 -0.000000 0.000000 0.000000 -0.000000 
-0.113725 109.462990 2.750221 -90.808110 -2.094533 1.698595 0.000000 0.000000 -0.000000 -10.379856 17.336991 19.704317 12.486153 1.191901 1.433520 21.970229 29.941531 -28.484349 0.000001 -0.000002 0.000001 0.000001 0.000000 0.000001 -13.904416 -16.049302 -21.593346 14.288770 -5.348316 -4.610951 32.403865 -29.920590 33.604602 -0.000000 0.000001 -0.000000 -0.000001 0.000001 0.000000 0.698742 -0.116027 -0.848584 0.841706 0.154199 -0.463160 0.831228 0.158014 -0.488483 -1.633935 1.536190 -3.396466 -1.633964 1.536192 -3.396461 0.000000 0.000000 0.000000 -1.633851 1.536196 -3.396470 -1.633952 1.536186 -3.396467 -0.000000 -0.000001 0.000001 0.000000 0.000000 -0.000000 0.834527 -6.714839 -3.485308 44.088963 -39.859468 -34.587695 0.000102 -83.340507 0.000118 -23.122550 -8.493318 7.462403 -1.945767 1.585340 13.204800 8.601837 21.114951 -0.258289 0.000000 -0.000003 -0.000005 0.776295 5.158041 -28.512486 0.566020 2.514174 -25.370939 0.000000 0.000002 0.000001 0.776307 5.158026 -28.512492 0.566015 2.514174 -25.370932 -0.000000 0.000001 0.000003 0.776301 5.158026 -28.512485 0.351473 2.000425 -19.928006 -0.000002 -0.000001 0.000001 0.776298 5.158043 -28.512500 0.064897 0.870532 -8.527013 0.000000 -0.000003 -0.000002 0.000001 0.000001 0.000003 0.000001 0.000001 0.000003 0.000001 0.000001 0.000003 -0.000000 0.000000 -0.000000 -0.000000 -0.000001 -0.000001 -0.000000 0.000000 -0.000000 0.000000 0.000001 0.000001 0.484300 4.488120 3.202632 -4.331818 2.278525 83.612478 0.000027 129.566599 -0.000014 -0.044851 -5.712103 64.772330 -1.120912 -3.665710 -6.555855 8.244825 -30.620783 -3.274793 -0.000000 -0.000002 0.000003 4.540615 -8.344326 48.387393 6.575540 -4.244510 114.349087 0.000000 -0.000001 0.000000 2.375479 -6.542186 44.640214 7.222597 -3.888164 123.454809 -0.000000 -0.000001 0.000000 2.745580 -6.923846 44.442292 7.224995 -3.886567 123.490312 -0.000002 -0.000001 -0.000000 -10.268027 -14.528504 47.436292 6.314133 -4.353026 110.862918 0.000002 0.000003 -0.000002 0.000000 -0.000001 0.000000 0.000000 -0.000001 0.000000 0.000000 -0.000001 -0.000000 0.000000 0.000002 0.000000 0.000000 0.000002 -0.000000 0.000000 0.000002 0.000000 0.000000 0.000002 -0.000000 0.000000 0.000000 -0.000000 0.000000 0.000000 -0.000000 0.000000 0.000000 -0.000000 0.000000 0.000000 -0.000000 0.000000 0.000000 -0.000000 0.000000 0.000000 -0.000000 0.000000 0.000000 -0.000000 0.000000 0.000000 -0.000000 0.000000 0.000000 -0.000000 
-0.113188 109.463211 2.750984 -90.809168 -2.094168 1.699709 -0.000000 0.000000 0.000000 -10.380083 17.336612 19.704660 12.490470 1.180098 1.433608 21.968627 29.940370 -28.483921 0.000000 -0.000001 0.000001 0.000000 -0.000002 -0.000003 -13.906304 -16.053998 -21.594422 14.289285 -5.336011 -4.610608 32.403777 -29.920818 33.603332 0.000001 -0.000001 0.000000 -0.000000 0.000001 0.000000 0.698675 -0.116022 -0.848553 0.841681 0.154199 -0.463160 0.831234 0.158014 -0.488483 -1.644252 1.540295 -3.398483 -1.644270 1.540296 -3.398485 -0.000000 -0.000000 0.000000 -1.644207 1.540296 -3.398484 -1.644341 1.540276 -3.398475 -0.000000 0.000000 0.000001 -0.000000 -0.000000 0.000000 0.834871 -6.690143 -3.495206 44.105848 -39.875044 -34.542920 -0.000024 -83.340513 -0.000029 -23.131795 -8.494010 7.461466 -1.945765 1.585338 13.204800 8.601845 21.114956 -0.258280 0.000001 0.000001 -0.000001 0.776297 5.158041 -28.512481 0.566017 2.514177 -25.370939 -0.000002 0.000003 0.000002 0.776306 5.158028 -28.512490 0.566015 2.514175 -25.370932 -0.000000 0.000003 -0.000003 0.776301 5.158025 -28.512481 0.351475 2.000420 -19.928011 -0.000000 -0.000001 0.000002 0.776302 5.158043 -28.512498 0.064895 0.870538 -8.527013 0.000000 -0.000002 -0.000001 0.000000 -0.000003 -0.000001 0.000000 -0.000003 -0.000001 0.000000 -0.000003 -0.000001 0.000000 -0.000001 -0.000001 0.000000 -0.000002 -0.000002 0.000000 -0.000001 -0.000001 0.000001 0.000000 -0.000000 0.485162 4.473281 3.202566 -4.337916 2.290710 83.617648 0.000027 129.559973 -0.000014 -0.044336 -5.712086 64.777507 -1.120920 -3.665710 -6.555855 8.244820 -30.620790 -3.274791 -0.000001 -0.000003 -0.000001 4.540606 -8.344327 48.387393 6.575541 -4.244510 114.349094 -0.000004 0.000004 -0.000003 2.375471 -6.542186 44.640211 7.222601 -3.888168 123.454809 0.000004 0.000001 -0.000000 2.745574 -6.923843 44.442292 7.225001 -3.886568 123.490312 -0.000001 -0.000004 0.000000 -10.268031 -14.528502 47.436292 6.314133 -4.353023 110.862918 0.000003 0.000005 -0.000001 0.000000 0.000008 0.000000 0.000000 0.000007 0.000000 0.000000 0.000007 0.000000 0.000001 0.000000 -0.000000 0.000001 0.000000 -0.000000 0.000001 0.000000 -0.000000 0.000001 -0.000000 -0.000000 0.000000 0.000000 -0.000000 0.000000 0.000000 -0.000000 0.000000 0.000000 -0.000000 0.000000 0.000000 -0.000000 0.000000 0.000000 -0.000000 0.000000 0.000000 -0.000000 0.000000 0.000000 -0.000000 -0.000000 0.000000 -0.000000 -0.000000 0.000000 0.000000 
-0.112256 109.463684 2.751755 -90.810370 -2.093599 1.700585 0.000000 -0.000000 -0.000000 -10.380715 17.343599 19.703120 12.493687 1.181104 1.433723 21.959973 29.938983 -28.482481 0.000001 0.000002 0.000000 -0.000000 0.000001 0.000001 -13.906523 -16.063847 -21.595106 14.290180 -5.332966 -4.610022 32.402052 -29.921413 33.602601 0.000001 -0.000001 0.000000 0.000001 -0.000000 0.000000 0.698686 -0.116047 -0.848380 0.841702 0.154199 -0.463160 0.831234 0.158014 -0.488483 -1.660755 1.546483 -3.400414 -1.660740 1.546482 -3.400414 -0.000000 -0.000000 0.000001 -1.660747 1.546483 -3.400414 -1.660729 1.546488 -3.400419 0.000000 0.000000 -0.000001 -0.000000 -0.000000 0.000001 0.835173 -6.657530 -3.509656 44.126881 -39.892423 -34.487565 0.000052 -83.340513 0.000040 -23.142499 -8.494813 7.460365 -1.945765 1.585342 13.204802 8.601839 21.114956 -0.258282 -0.000000 0.000002 0.000003 0.776301 5.158045 -28.512490 0.566019 2.514177 -25.370939 -0.000002 0.000000 0.000000 0.776314 5.158030 -28.512498 0.566018 2.514173 -25.370932 0.000000 0.000001 -0.000001 0.776306 5.158025 -28.512492 0.351474 2.000420 -19.928008 -0.000001 0.000001 -0.000001 0.776303 5.158045 -28.512503 0.064897 0.870532 -8.527011 0.000000 -0.000002 0.000000 0.000000 -0.000002 -0.000002 0.000000 -0.000002 -0.000002 -0.000000 -0.000002 -0.000002 -0.000002 -0.000003 -0.000001 -0.000001 -0.000004 -0.000002 -0.000002 -0.000003 -0.000001 -0.000001 -0.000003 -0.000001 0.486094 4.456129 3.202493 -4.344466 2.305371 83.623058 0.000018 129.552064 -0.000028 -0.043855 -5.712102 64.782391 -1.120911 -3.665711 -6.555852 8.244827 -30.620790 -3.274797 0.000004 -0.000003 -0.000003 4.540614 -8.344326 48.387393 6.575543 -4.244513 114.349087 -0.000001 0.000000 0.000002 2.375476 -6.542185 44.640211 7.222595 -3.888166 123.454809 -0.000000 -0.000001 -0.000001 2.745582 -6.923842 44.442292 7.224995 -3.886569 123.490312 0.000002 -0.000003 0.000004 -10.268029 -14.528504 47.436292 6.314133 -4.353023 110.862918 -0.000001 0.000002 -0.000002 0.000000 0.000004 -0.000000 -0.000000 0.000003 -0.000000 0.000000 0.000003 -0.000000 -0.000000 0.000001 -0.000000 -0.000000 0.000001 0.000000 -0.000000 0.000001 -0.000000 -0.000000 0.000001 0.000000 0.000000 -0.000000 -0.000000 0.000000 -0.000000 -0.000000 0.000000 -0.000000 -0.000000 0.000000 -0.000000 -0.000000 0.000000 -0.000000 -0.000000 0.000000 -0.000000 -0.000000 0.000000 -0.000000 -0.000000 -0.000000 0.000000 -0.000000 0.000000 -0.000000 -0.000000 
